# xmcd CD database file
#
# Track frame offsets:
#	150
#	19262
#	37575
#	57125
#	77062
#	91850
#	108050
#	126537
#	148075
#	166175
#	192575
#	210150
#	236000
#	263025
#	279362
#	308395
#	318950
#
# Disc length: 4639 seconds
#
# Revision: 4
# Processed by: cddbd v1.5.2PL0 Copyright (c) Steve Scherf et al.
# Submitted via: CDex 1.51
#
DISCID=d5121d11
DTITLE=Various Artist - Max Best Hits InThe World
DYEAR=1994
DGENRE=Other
TTITLE0=Lisette Melendez - Goody Goody (Radio Edit)
TTITLE1=C+C Music Factory - Do You Wanna Get Funky (Radio Mix)
TTITLE2=Mariah Carey - Hero
TTITLE3=Aswad - Heartbeat
TTITLE4=Jimmy Cliff - I Can See Clearly Now
TTITLE5=Janet Kay - Got Ot Be There
TTITLE6=Peabo Bryson and Regina Belle - A Whole New World (Aladdin's Theme)
TTITLE7=Basia - Drunk On Love
TTITLE8=Clementine - Un Homme Et Une Femme (Mixed Radio Version)
TTITLE9=Sade - Kiss Of Life
TTITLE10=Michael Bolton - When A Man Loves A Woman
TTITLE11=Celine Dion - The Power Of Love
TTITLE12=Billy Joel - All About Soul
TTITLE13=Primal Scream - Rocks
TTITLE14=Jamiroquai - Space Cowboy
TTITLE15=Simon and Garfunkel - A Hazy Shade Of Winter
TTITLE16=Michael Jackson - Heal The World
EXTD=YEAR: 1994
EXTT0=
EXTT1=
EXTT2=
EXTT3=
EXTT4=
EXTT5=
EXTT6=
EXTT7=
EXTT8=
EXTT9=
EXTT10=
EXTT11=
EXTT12=
EXTT13=
EXTT14=
EXTT15=
EXTT16=
PLAYORDER=
